<?xml version="1.0" encoding="UTF-8"?>
<svg xmlns="http://www.w3.org/2000/svg" xmlns:xlink="http://www.w3.org/1999/xlink" width="854" height="480" viewBox="0 0 854 480">
<defs>
<g>
<g id="glyph-0-0">
<path d="M 1.054688 -0.941406 C 1.097656 -0.890625 1.132812 -0.832031 1.15625 -0.765625 C 1.179688 -0.699219 1.191406 -0.625 1.191406 -0.539062 C 1.191406 -0.453125 1.175781 -0.375 1.148438 -0.304688 C 1.121094 -0.234375 1.082031 -0.175781 1.035156 -0.128906 C 0.988281 -0.078125 0.933594 -0.0390625 0.875 -0.0117188 C 0.816406 0.015625 0.753906 0.0273438 0.6875 0.0273438 C 0.621094 0.0273438 0.570312 0.0195312 0.527344 0.0078125 C 0.484375 -0.0078125 0.453125 -0.0234375 0.425781 -0.0429688 L 0.417969 -0.0429688 L 0.417969 0.277344 C 0.417969 0.304688 0.421875 0.324219 0.433594 0.34375 C 0.441406 0.359375 0.457031 0.371094 0.480469 0.382812 C 0.496094 0.386719 0.523438 0.394531 0.554688 0.398438 C 0.585938 0.40625 0.613281 0.410156 0.632812 0.410156 L 0.632812 0.480469 L 0.0351562 0.480469 L 0.0351562 0.410156 C 0.0585938 0.410156 0.078125 0.40625 0.101562 0.40625 C 0.121094 0.402344 0.140625 0.398438 0.15625 0.394531 C 0.179688 0.386719 0.195312 0.375 0.203125 0.355469 C 0.210938 0.335938 0.214844 0.316406 0.214844 0.292969 L 0.214844 -0.847656 C 0.214844 -0.867188 0.210938 -0.890625 0.199219 -0.910156 C 0.1875 -0.929688 0.175781 -0.945312 0.15625 -0.957031 C 0.144531 -0.96875 0.125 -0.972656 0.101562 -0.976562 C 0.078125 -0.984375 0.0585938 -0.984375 0.0351562 -0.988281 L 0.0351562 -1.058594 L 0.402344 -1.082031 L 0.414062 -1.070312 L 0.414062 -0.949219 L 0.425781 -0.949219 C 0.460938 -0.992188 0.507812 -1.027344 0.5625 -1.054688 C 0.621094 -1.085938 0.675781 -1.097656 0.730469 -1.097656 C 0.796875 -1.097656 0.859375 -1.085938 0.914062 -1.058594 C 0.96875 -1.027344 1.015625 -0.992188 1.054688 -0.941406 M 0.878906 -0.171875 C 0.90625 -0.21875 0.929688 -0.269531 0.941406 -0.328125 C 0.957031 -0.390625 0.964844 -0.457031 0.964844 -0.527344 C 0.964844 -0.582031 0.957031 -0.636719 0.945312 -0.691406 C 0.933594 -0.75 0.917969 -0.796875 0.890625 -0.835938 C 0.867188 -0.878906 0.835938 -0.914062 0.796875 -0.941406 C 0.753906 -0.964844 0.707031 -0.980469 0.652344 -0.980469 C 0.597656 -0.980469 0.554688 -0.96875 0.515625 -0.945312 C 0.476562 -0.921875 0.445312 -0.890625 0.417969 -0.859375 L 0.417969 -0.226562 C 0.425781 -0.207031 0.433594 -0.1875 0.449219 -0.167969 C 0.464844 -0.144531 0.480469 -0.128906 0.5 -0.113281 C 0.523438 -0.09375 0.546875 -0.078125 0.570312 -0.0664062 C 0.597656 -0.0546875 0.628906 -0.0507812 0.667969 -0.0507812 C 0.707031 -0.0507812 0.746094 -0.0625 0.785156 -0.0820312 C 0.824219 -0.105469 0.855469 -0.132812 0.878906 -0.171875 Z "/>
</g>
<g id="glyph-0-1">
<path d="M 1.261719 -0.742188 L 0.167969 -0.742188 L 0.167969 -0.875 L 1.261719 -0.875 L 1.261719 -0.742188 M 1.261719 -0.335938 L 0.167969 -0.335938 L 0.167969 -0.472656 L 1.261719 -0.472656 Z "/>
</g>
<g id="glyph-0-2">
<path d="M 1.113281 -1.011719 C 1.160156 -0.957031 1.195312 -0.894531 1.21875 -0.816406 C 1.242188 -0.742188 1.253906 -0.664062 1.253906 -0.582031 C 1.253906 -0.484375 1.238281 -0.394531 1.210938 -0.320312 C 1.183594 -0.242188 1.144531 -0.175781 1.09375 -0.125 C 1.042969 -0.0703125 0.984375 -0.03125 0.914062 -0.00390625 C 0.84375 0.0195312 0.765625 0.0351562 0.679688 0.0351562 C 0.589844 0.0351562 0.503906 0.0195312 0.433594 -0.0117188 C 0.359375 -0.0429688 0.300781 -0.0859375 0.253906 -0.140625 C 0.207031 -0.195312 0.171875 -0.261719 0.148438 -0.339844 C 0.125 -0.414062 0.113281 -0.496094 0.113281 -0.582031 C 0.113281 -0.667969 0.125 -0.75 0.144531 -0.820312 C 0.167969 -0.894531 0.203125 -0.957031 0.253906 -1.015625 C 0.300781 -1.074219 0.359375 -1.117188 0.433594 -1.152344 C 0.503906 -1.183594 0.589844 -1.199219 0.683594 -1.199219 C 0.78125 -1.199219 0.867188 -1.183594 0.9375 -1.148438 C 1.007812 -1.117188 1.066406 -1.070312 1.113281 -1.011719 M 1.011719 -0.582031 C 1.011719 -0.753906 0.984375 -0.886719 0.925781 -0.984375 C 0.863281 -1.078125 0.785156 -1.125 0.683594 -1.125 C 0.582031 -1.125 0.5 -1.078125 0.441406 -0.984375 C 0.382812 -0.886719 0.351562 -0.753906 0.351562 -0.582031 C 0.351562 -0.417969 0.378906 -0.289062 0.4375 -0.1875 C 0.492188 -0.0898438 0.574219 -0.0390625 0.679688 -0.0390625 C 0.789062 -0.0390625 0.871094 -0.0898438 0.925781 -0.1875 C 0.984375 -0.289062 1.011719 -0.417969 1.011719 -0.582031 Z "/>
</g>
<g id="glyph-0-3">
<path d="M 0.449219 -0.125 C 0.449219 -0.0859375 0.4375 -0.0507812 0.40625 -0.0195312 C 0.378906 0.0078125 0.34375 0.0234375 0.300781 0.0234375 C 0.261719 0.0234375 0.226562 0.0078125 0.195312 -0.0195312 C 0.167969 -0.0507812 0.152344 -0.0859375 0.152344 -0.125 C 0.152344 -0.164062 0.167969 -0.199219 0.195312 -0.230469 C 0.226562 -0.257812 0.261719 -0.273438 0.300781 -0.273438 C 0.34375 -0.273438 0.378906 -0.257812 0.40625 -0.230469 C 0.4375 -0.199219 0.449219 -0.164062 0.449219 -0.125 Z "/>
</g>
<g id="glyph-0-4">
<path d="M 1.175781 -0.0976562 L 0.957031 -0.0976562 L 0.957031 0.394531 L 0.746094 0.394531 L 0.746094 -0.0976562 L 0.0546875 -0.0976562 L 0.0546875 -0.265625 L 0.8125 -1.191406 L 0.957031 -1.191406 L 0.957031 -0.238281 L 1.175781 -0.238281 L 1.175781 -0.0976562 M 0.746094 -0.238281 L 0.746094 -0.949219 L 0.160156 -0.238281 Z "/>
</g>
</g>
</defs>
<g fill="rgb(100%, 100%, 100%)" fill-opacity="1">
<use xlink:href="#glyph-0-0" x="30" y="22.038086"/>
<use xlink:href="#glyph-0-1" x="31" y="22.038086"/>
<use xlink:href="#glyph-0-2" x="32" y="22.038086"/>
<use xlink:href="#glyph-0-3" x="33" y="22.038086"/>
<use xlink:href="#glyph-0-4" x="34" y="22.038086"/>
</g>
</svg>
